HIERARCHY
ROOT Hips
{
	OFFSET -14.64140 90.27770 -84.91600
	CHANNELS 6 Xposition Yposition Zposition Zrotation Xrotation Yrotation
	JOINT Spine
	{
		OFFSET 0.00000 13.20850 -1.60436
		CHANNELS 3 Zrotation Xrotation Yrotation
		JOINT Spine1
		{
			OFFSET 0.00000 8.61716 0.00000
			CHANNELS 3 Zrotation Xrotation Yrotation
			JOINT Spine2
			{
				OFFSET 0.00000 8.61717 0.00000
				CHANNELS 3 Zrotation Xrotation Yrotation
				JOINT Spine3
				{
					OFFSET 0.00000 8.61717 0.00000
					CHANNELS 3 Zrotation Xrotation Yrotation
					JOINT Neck
					{
						OFFSET 0.00000 11.07920 1.10792
						CHANNELS 3 Zrotation Xrotation Yrotation
						JOINT Neck1
						{
							OFFSET 0.00000 7.08032 0.00000
							CHANNELS 3 Zrotation Xrotation Yrotation
							JOINT Head
							{
								OFFSET 0.00000 7.08031 0.00000
								CHANNELS 3 Zrotation Xrotation Yrotation
								End site
								{
									OFFSET 0.00000 0.00000 0.00000
								}
							}
						}
					}
					JOINT RightShoulder
					{
						OFFSET -0.01000 7.91373 5.19711
						CHANNELS 3 Zrotation Xrotation Yrotation
						JOINT RightArm
						{
							OFFSET -18.41580 0.00000 0.00000
							CHANNELS 3 Zrotation Xrotation Yrotation
							JOINT RightForeArm
							{
								OFFSET -29.11090 0.00000 0.00000
								CHANNELS 3 Zrotation Xrotation Yrotation
								JOINT RightHand
								{
									OFFSET -24.65040 0.00000 0.00000
									CHANNELS 3 Zrotation Xrotation Yrotation
									JOINT RightHandThumb1
									{
										OFFSET -5.35114 -0.85590 3.97906
										CHANNELS 3 Zrotation Xrotation Yrotation
										JOINT RightHandThumb2
										{
											OFFSET -4.52789 0.00000 0.00000
											CHANNELS 3 Zrotation Xrotation Yrotation
											JOINT RightHandThumb3
											{
												OFFSET -2.46976 0.00000 0.00000
												CHANNELS 3 Zrotation Xrotation Yrotation
												End site
												{
													OFFSET 0.00000 0.00000 0.00000
												}
											}
										}
									}
									JOINT RightHandIndex1
									{
										OFFSET -14.26970 0.00000 2.88139
										CHANNELS 3 Zrotation Xrotation Yrotation
										JOINT RightHandIndex2
										{
											OFFSET -5.48836 0.00000 0.00000
											CHANNELS 3 Zrotation Xrotation Yrotation
											JOINT RightHandIndex3
											{
												OFFSET -3.01859 0.00000 0.00000
												CHANNELS 3 Zrotation Xrotation Yrotation
												End site
												{
													OFFSET 0.00000 0.00000 0.00000
												}
											}
										}
									}
									JOINT RightHandMiddle1
									{
										OFFSET -14.26970 0.00000 -0.09147
										CHANNELS 3 Zrotation Xrotation Yrotation
										JOINT RightHandMiddle2
										{
											OFFSET -6.17441 0.00000 0.00000
											CHANNELS 3 Zrotation Xrotation Yrotation
											JOINT RightHandMiddle3
											{
												OFFSET -3.56743 0.00000 0.00000
												CHANNELS 3 Zrotation Xrotation Yrotation
												End site
												{
													OFFSET 0.00000 0.00000 0.00000
												}
											}
										}
									}
									JOINT RightHandRing1
									{
										OFFSET -12.69180 0.00000 -3.06433
										CHANNELS 3 Zrotation Xrotation Yrotation
										JOINT RightHandRing2
										{
											OFFSET -5.62556 0.00000 0.00000
											CHANNELS 3 Zrotation Xrotation Yrotation
											JOINT RightHandRing3
											{
												OFFSET -3.56744 0.00000 0.00000
												CHANNELS 3 Zrotation Xrotation Yrotation
												End site
												{
													OFFSET 0.00000 0.00000 0.00000
												}
											}
										}
									}
									JOINT RightHandPinky1
									{
										OFFSET -11.11390 0.00000 -6.03719
										CHANNELS 3 Zrotation Xrotation Yrotation
										JOINT RightHandPinky2
										{
											OFFSET -4.52789 0.00000 0.00000
											CHANNELS 3 Zrotation Xrotation Yrotation
											JOINT RightHandPinky3
											{
												OFFSET -2.46976 0.00000 0.00000
												CHANNELS 3 Zrotation Xrotation Yrotation
												End site
												{
													OFFSET 0.00000 0.00000 0.00000
												}
											}
										}
									}
								}
							}
						}
					}
					JOINT LeftShoulder
					{
						OFFSET 0.01000 7.91373 5.19711
						CHANNELS 3 Zrotation Xrotation Yrotation
						JOINT LeftArm
						{
							OFFSET 18.41580 0.00000 0.00000
							CHANNELS 3 Zrotation Xrotation Yrotation
							JOINT LeftForeArm
							{
								OFFSET 29.11090 0.00000 0.00000
								CHANNELS 3 Zrotation Xrotation Yrotation
								JOINT LeftHand
								{
									OFFSET 24.65040 0.00000 0.00000
									CHANNELS 3 Zrotation Xrotation Yrotation
									JOINT LeftHandThumb1
									{
										OFFSET 5.35114 -0.85590 3.97906
										CHANNELS 3 Zrotation Xrotation Yrotation
										JOINT LeftHandThumb2
										{
											OFFSET 4.52789 0.00000 0.00000
											CHANNELS 3 Zrotation Xrotation Yrotation
											JOINT LeftHandThumb3
											{
												OFFSET 2.46977 0.00000 0.00000
												CHANNELS 3 Zrotation Xrotation Yrotation
												End site
												{
													OFFSET 0.00000 0.00000 0.00000
												}
											}
										}
									}
									JOINT LeftHandIndex1
									{
										OFFSET 14.26970 0.00000 2.88139
										CHANNELS 3 Zrotation Xrotation Yrotation
										JOINT LeftHandIndex2
										{
											OFFSET 5.48836 0.00000 0.00000
											CHANNELS 3 Zrotation Xrotation Yrotation
											JOINT LeftHandIndex3
											{
												OFFSET 3.01859 0.00000 0.00000
												CHANNELS 3 Zrotation Xrotation Yrotation
												End site
												{
													OFFSET 0.00000 0.00000 0.00000
												}
											}
										}
									}
									JOINT LeftHandMiddle1
									{
										OFFSET 14.26970 0.00000 -0.09147
										CHANNELS 3 Zrotation Xrotation Yrotation
										JOINT LeftHandMiddle2
										{
											OFFSET 6.17440 0.00000 0.00000
											CHANNELS 3 Zrotation Xrotation Yrotation
											JOINT LeftHandMiddle3
											{
												OFFSET 3.56744 0.00000 0.00000
												CHANNELS 3 Zrotation Xrotation Yrotation
												End site
												{
													OFFSET 0.00000 0.00000 0.00000
												}
											}
										}
									}
									JOINT LeftHandRing1
									{
										OFFSET 12.69180 0.00000 -3.06433
										CHANNELS 3 Zrotation Xrotation Yrotation
										JOINT LeftHandRing2
										{
											OFFSET 5.62556 0.00000 0.00000
											CHANNELS 3 Zrotation Xrotation Yrotation
											JOINT LeftHandRing3
											{
												OFFSET 3.56744 0.00000 0.00000
												CHANNELS 3 Zrotation Xrotation Yrotation
												End site
												{
													OFFSET 0.00000 0.00000 0.00000
												}
											}
										}
									}
									JOINT LeftHandPinky1
									{
										OFFSET 11.11390 0.00000 -6.03719
										CHANNELS 3 Zrotation Xrotation Yrotation
										JOINT LeftHandPinky2
										{
											OFFSET 4.52789 0.00000 0.00000
											CHANNELS 3 Zrotation Xrotation Yrotation
											JOINT LeftHandPinky3
											{
												OFFSET 2.46976 0.00000 0.00000
												CHANNELS 3 Zrotation Xrotation Yrotation
												End site
												{
													OFFSET 0.00000 0.00000 0.00000
												}
											}
										}
									}
								}
							}
						}
					}
					JOINT pCube4
					{
						OFFSET 0.00000 10.91090 1.10792
						CHANNELS 3 Zrotation Xrotation Yrotation
						End site
						{
							OFFSET 0.00000 0.00000 0.00000
						}
					}
				}
			}
		}
	}
	JOINT RightUpLeg
	{
		OFFSET -9.98441 0.00000 0.00000
		CHANNELS 3 Zrotation Xrotation Yrotation
		JOINT RightLeg
		{
			OFFSET 0.00000 -42.11790 0.00000
			CHANNELS 3 Zrotation Xrotation Yrotation
			JOINT RightFoot
			{
				OFFSET 0.00000 -45.00020 -0.00001
				CHANNELS 3 Zrotation Xrotation Yrotation
				JOINT RightForeFoot
				{
					OFFSET 0.00000 -3.74820 0.00000
					CHANNELS 3 Zrotation Xrotation Yrotation
					JOINT RightToeBase
					{
						OFFSET 0.00000 0.06325 14.43120
						CHANNELS 3 Zrotation Xrotation Yrotation
						End site
						{
							OFFSET 0.00000 0.00000 0.00000
						}
					}
				}
			}
		}
	}
	JOINT LeftUpLeg
	{
		OFFSET 9.98441 0.00000 0.00000
		CHANNELS 3 Zrotation Xrotation Yrotation
		JOINT LeftLeg
		{
			OFFSET 0.00000 -42.11800 0.00000
			CHANNELS 3 Zrotation Xrotation Yrotation
			JOINT LeftFoot
			{
				OFFSET 0.00000 -45.00070 0.00000
				CHANNELS 3 Zrotation Xrotation Yrotation
				JOINT LeftForeFoot
				{
					OFFSET 0.00000 -3.74824 0.00000
					CHANNELS 3 Zrotation Xrotation Yrotation
					JOINT LeftToeBase
					{
						OFFSET 0.00000 0.06325 14.43110
						CHANNELS 3 Zrotation Xrotation Yrotation
						End site
						{
							OFFSET 0.00000 0.00000 0.00000
						}
					}
				}
			}
		}
	}
}
MOTION
Frames: 4
Frame Time: 0.050000
-0.013740688426968234 -0.022109246791129165 0.0229815460724931 0.022591056506212896 0.008133465785953434 -0.034507335776240565 -3.383372155463658 -0.6717354590738918 -0.7787399862097748 -0.8869018778564469 3.5889687255468603 0.31912049457943054 -1.1598165461593797 -2.047091455605108 -1.528607403541087 -0.21990907101709395 0.18996172604130632 -0.8462431956511975 -0.36023893160562376 12.193990794100523 1.0039686417639715 0.24852573523267393 0.2493872616625583 1.327634487931294 0.04434451842861134 -14.294563581318116 0.15281271201615687 -3.399901864732902 1.4531464767819033 -14.315577102663031 73.14090477043938 26.016577656592567 3.2979836172748103 35.2793970434558 6.637294388159415 87.25505067645379 23.17656573629351 -0.3231419045597613 -3.7788602717930817 4.528204544754167 -0.1374211279506894 -1.5760957192405973 0.0023507129845824824 0.008624411311175117 -56.18835355305895 -0.0091129570475953 0.012618398552352443 -56.20671265505761 -38.72403746361134 -0.03019612027563483 -0.014272717445708549 -0.026699167705277 0.0003241891141168543 0.048866868510725074 0.043189162532386714 0.023306578405819355 0.0383480617216451 -36.66056674780976 -0.019629082763737996 0.01480744002584841 0.024713259463633355 -0.027650319107264263 0.020176782706043412 -0.01980765299395817 -0.016800395886797874 -0.034410802834959814 -19.735376457753624 0.01925992534911009 -0.02897906327637067 0.0067076465056758235 -0.023112724092714296 -0.040441527638821355 -0.01058515943668894 -0.04184962850963964 0.022765804337266583 24.06550786989082 0.002411386907132869 -0.03881247806560499 28.89179034219459 -0.033187860207370294 -0.0433326938653828 28.87602487803561 -0.010277794626845168 -0.0233510744475153 6.1614928002421125 1.451191055428895 12.385090179923171 -73.5861431386628 25.020663942461958 -8.199980929790105 -92.62156869993312 9.442470692838205 -106.73650332171665 -20.266966249839477 -1.5634842154328612 0.7698620433710855 -0.42679940518154813 0.11359301616038023 -8.138025866776573 0.02895718721356544 0.03145031441929985 44.59645380710346 -0.011119681206401031 -0.023130772483469952 44.57574167794717 12.438235889215848 -0.01748970887921138 0.008465645597667352 -0.03135471891645969 0.023409171384866468 -0.024695119446076094 -0.03939699274911811 0.03214757680005093 0.0014973163620329998 11.096717308202498 0.033891774653646435 0.03495049469313349 -0.001730572117738056 -0.022813315502865975 -0.016850975302423164 0.046149368567114546 -0.018436077861390874 0.00424361465928606 4.751187010293362 -0.028716304305075872 -0.008187647304854755 -0.024325171725265587 0.02745431275291171 0.029249807473614425 -0.04150787183471458 0.026088529088476607 0.007297280494628447 -5.611160759173484 -0.022693535317375155 0.016384122729817725 -6.703477288520876 0.046179628971948675 -0.026049430594323218 -6.708400702209592 -0.01727185482665327 0.01205075509524582 0.014857475261486331 -0.01789892658513046 0.0006744675603277218 8.013957844421233 3.5041948129121625 -19.26056975099066 -0.025952941699018774 10.346037829019094 -0.025884042323967845 -5.6664214534009245 -15.693624044862679 3.2008870485808263 -0.0072833964360842305 0.005184678196871762 -0.0037419998253648066 0.04740219695284251 4.670805714581644 -0.0427267296091538 12.445229441066292 -8.247526734472986 6.848349098459821 -0.0011375061379841514 46.4052587555975 0.011044587405258877 -4.283892384152783 -14.774823794348961 -3.847184618355102 0.04706658763357183 0.03298535149733657 -0.04301604616675875 0.009669644203199105 -10.727711875961013 -0.008904420135521078 
0.024713472715489408 -0.011770588523317391 -0.013135531552840314 -0.014996919556440579 -0.00527296980977601 -0.006498650222962463 -3.3900885890289394 -0.657507883699432 -0.8399789600421412 -0.9229056507176507 3.592143508263035 0.38687358856193144 -1.2017463134596713 -2.05655538381 -1.5693087993988917 -0.23668309949020838 0.2839087156893683 -0.8822941376984006 -0.356358458692081 12.195640446959173 1.1199297601730214 0.20483992106566704 0.3661371404181391 1.7757286928681013 -0.12028851560938879 -14.135505286813894 0.18956549563267364 -3.3791874361647816 1.4614967821126494 -14.335042745912922 72.67311632934553 25.579961294276483 3.6788311537306 36.13241485238512 5.487779744487334 90.80645603706118 22.195765891945722 -0.3393410509385414 -3.6625079991398612 4.5507237383238826 -0.16565928245021597 -1.6395672870313451 0.0015771757237094811 -0.03962256618225845 -56.252648824468956 0.0016106848477587068 0.012696515082373636 -56.199959967651154 -38.73039984593629 -0.017256336315013502 0.03017386812145713 0.041820300849562196 -0.01047136903081478 -0.03202375466597943 -0.02278691721908914 -0.021701733965001208 -0.03917301471336061 -36.737428802685415 0.03246653658464282 -0.046394276835703206 -0.021949887324301826 0.0009936469263407649 0.008962050636759176 -0.015244442449142514 0.022341738135841453 0.04574854290142666 -19.76717531498724 -0.03222961856199883 0.022834136655585105 -0.03727552387086428 0.002094936729746546 -0.009436549274343778 -0.024308586919559828 -0.03352059067482437 0.04575687829231607 24.019898897532077 0.04062444993316112 -0.010847859280337603 28.914318964028883 0.026377642024342254 0.00865938791582611 28.890459425260424 -0.009789595157789616 -0.03310666837670769 6.090440738254755 1.411882472734448 12.344254924577347 -73.37221448590023 25.395995098186084 -8.032145610066065 -90.90897957213824 8.863714605609516 -105.68042111166075 -19.1396156006834 -0.7641552419340534 0.20551649390369586 -0.48125316712861055 0.05610714926425383 -8.108217962291613 2.4677684012374933e-05 -0.005163768413806343 44.57040233754528 -0.010190131784165106 -0.03673341796756112 44.61219452105546 12.477722537260584 0.007421203912055519 0.01806479447203836 0.04061058353479557 0.045540204750143726 -0.03613059306831156 -0.025073573883332603 0.002858463839795462 -0.036562252173284314 11.134011275099308 -0.007606031868361443 -0.003538054820920667 0.02011105600048618 0.049798757148994 0.009122378257074999 -0.036042159841014734 -0.020271843572831176 -0.027722188848149698 4.793374238915208 0.018256242087868173 -0.004218284690642002 0.04870045813417233 -0.03030339441290142 -0.023411931065548924 -0.02753980442441281 -0.0035108841174608637 0.03013106596700514 -5.589798300437568 -0.014120265006616345 -0.004387449465303683 -6.755800095703507 -0.015749256780392594 -0.025703454297748833 -6.6930588709541015 0.049757401792547534 -0.042018878990682594 0.04668254068101016 0.03337014121635446 0.019260898029742016 8.053474702746238 3.4993273794811444 -19.241950110789972 0.001709469208121341 10.443389054018477 0.05376372638805928 -5.620507826388921 -15.657618035451044 3.211175628937145 -0.03857944195127474 -0.038693233449787964 0.04637540217992877 -0.0007787794616354596 4.7196609481547345 -0.0020338214654711307 12.475745758196174 -8.25970020276327 6.881512942282858 -0.044862255031319805 46.41388802842595 0.0072447317071638135 -4.339692347850511 -14.731963582245704 -3.803090949427858 -0.021072042125951068 0.0014529148343675252 -0.0067797914873817455 -0.01201162168603872 -10.756633009207464 0.04126873931899692 
-0.04572657848326282 -0.026800963459285135 -0.02667180067613675 -0.008517813172654974 0.04010954682073478 -0.046897887300662355 -3.3180490458176783 -0.6654931933346304 -0.7951877701099339 -0.9085700561080724 3.579952491423873 0.3873751054144639 -1.1629833411675559 -2.0703215869560103 -1.5021566017577463 -0.14166391171033232 0.3051779789606816 -0.832392261798482 -0.37725550254340234 12.343747193191842 1.2979863602273234 0.16039919224062255 0.4589346655018802 1.9860104261937765 -0.12990402135330206 -13.924769275289874 0.1728398098895521 -3.343216244889659 1.449916750478963 -14.345636465040194 72.29654649909621 25.327114773042766 3.7918628140569335 35.72726137579273 4.527057179999975 92.93060312013668 21.283425325849887 -0.35080266835530877 -3.7308833236996275 4.529465219580726 -0.12290981182026209 -1.6244280964700348 -0.040308004333512094 0.018680084151226874 -56.243580398497066 -0.026639199937196927 0.03437165871835522 -56.21148259676169 -38.77642117720744 -0.02363950010154796 0.037654312504408295 0.036003016258618833 -0.039486281568849035 0.00786254895684828 0.020766244730922683 0.02621933355028072 -0.014823093523153294 -36.67261126560202 0.049202158440527805 -0.024577062594522827 -0.04266606892975152 0.0179194604044849 0.01575708999874614 0.020679330572485125 -0.04378558200189424 0.019130551492623257 -19.75404282752018 0.040637365228288765 0.015826595310385813 -0.002193009268604501 -0.0011191454792198357 -0.049687372809684605 0.00593774485833668 0.011640796224436815 0.02422292651723212 24.045874382559905 -0.029562372067835452 0.03996949479889728 28.890250033954512 0.007367119400607658 0.004417108193064455 28.85564013469718 -0.030723504461771318 -0.047192172038850656 6.0064205581588705 1.4283343409362554 12.48387321244654 -73.00648601102644 25.571386739590256 -7.993942629632551 -86.40151090701512 8.932034013839772 -103.01164488516865 -17.47439115700595 -0.17581216629072088 -0.1797636616607245 -0.5167085873737789 0.03554973105964377 -8.094029844351676 0.013924183426480977 0.020121951835522397 44.58854204641604 0.005186761214732891 6.114253546944834e-05 44.52912137650747 12.480165600519655 -0.0011616708436368549 -0.043488949169534455 -0.00638470646789846 0.03955086537211915 0.01689487202168717 0.022837904730035448 -0.03719108226663184 -0.039017080920401216 11.077852076201584 0.045612635702708654 0.03474276513049765 -0.017304356776424425 0.02942977540909101 0.012509797204311529 -0.0022572688472727686 0.017932691664507776 -0.018628921536147508 4.785386676985737 0.03929655947473418 0.012910083510047085 0.00872589052269238 -0.02635098802067992 0.04337805999275406 -0.0054301295317478 -0.02713331633863044 -0.03723584897490107 -5.628475310984547 -0.04275612673221694 0.006955793518278114 -6.741279769187249 0.035164727452172494 0.021662749909457307 -6.70596986372496 -0.009304177842910833 -0.011719400290196053 0.04116157856864353 -0.015544743601415245 -0.017171000012357475 8.028373064650914 3.457479299744382 -19.25860867111078 -0.0033748910971736616 10.403942197607071 0.056634400692565964 -5.656667630214046 -15.668919320337503 3.2017500725115444 0.031231627986625855 -0.020871877130447743 -0.0306769223541272 -0.004241073580859289 4.666923256822767 0.002421236687754803 12.450696001565856 -8.282633066516512 6.906398986221495 0.002166231347825786 46.421698661535366 0.05153205729974839 -4.341170978282986 -14.722225357229936 -3.8271724796164537 -0.020883065638428337 0.044515289133023224 0.038088104582893925 -0.04472454882852283 -10.705829933695254 -0.0023184459190090296 
-0.011399303012712865 0.03931361148895554 0.011243123423102594 -0.04913059365936941 -0.015512303596620187 -0.01570284868693024 -3.192283799866376 -0.6151852116445788 -0.8495978670876635 -0.9195643413147887 3.633098636617058 0.3788748438281283 -1.1734404965869252 -2.001399605993294 -1.4402502020801007 -0.1512496999461062 0.3538495133172575 -0.8749338033303634 -0.39647035200278946 12.484782903070263 1.3883459070550392 0.17821068907464152 0.4728447352632005 2.0740307840515073 -0.18077823547767902 -13.885082546196623 0.16010854967780447 -3.4364056774493554 1.4396965287877836 -14.51122399502742 72.0127120752335 25.670771820507852 3.5196706534912137 33.682011472171524 4.136400221512124 92.86885472657046 20.566053201306747 -0.31931060508103887 -3.9337517150460624 4.520315938211396 -0.08681489247202549 -1.612065654899308 -0.013342808265907466 0.027623323607024144 -56.22434886594303 -0.023698213668906933 0.04154925061107067 -56.19436409904813 -38.74290230892237 0.03980463857072712 -0.03155718381923557 0.010058382088584707 -0.02521820245338738 -0.014233124400114108 -0.039797782892792365 0.02456393927548375 0.03161110111768641 -36.68698190449802 0.0459806315220717 -0.040598018072394076 0.020811747773985957 -0.010719228821498852 0.0222066022633433 0.023292538212752747 0.03232848137579162 -0.0073145647765255105 -19.746037651119526 -0.018293700482163035 0.02765533095252473 0.024271906265390955 -0.006258464395412243 -0.008632653802366774 0.02534311169024579 0.028722644857072446 -0.049107462310633926 24.029060933516615 -0.02164980279138071 -0.023918760224452093 28.912805273896698 -0.031663882300610034 -0.016701826031180422 28.849551280007805 0.03188261710500579 0.04890102118658712 5.986384635157247 1.3759382223247885 12.707675025929543 -72.52985846689691 25.65302951653825 -7.578478572446461 -77.60725190276514 9.849707159068084 -97.60462263299259 -15.549760733028297 0.09302886867802629 -0.21721190514588518 -0.4341133698112256 0.04240632819527452 -8.108666966309226 -0.00515051561386018 0.04022032734021229 44.532643474925166 0.0433865144654142 0.010930153980178098 44.53014646865528 12.428081551737408 0.03237508525565809 0.039135408759757774 -0.00556368978720594 0.0071775341553666295 -0.017348656871541433 0.014359172000289307 0.021789419280134566 -0.03460153024796008 11.092286526754396 -0.02507757127251492 0.002638276912926858 0.045598499966026065 -0.0026006401634544245 -0.013434907721036915 -0.03575952596941525 0.047602014648056 -0.0040956165146073175 4.789097884801051 -0.00019500524328889006 -0.022796412545533953 0.000165335488170499 -0.021037101289108844 -0.012089732905107916 0.03735971464997309 0.030107669109394424 -0.0073816808198961465 -5.588135133052233 -0.02460979077388219 -0.0346823255928248 -6.756455508522979 -0.009149341718700176 -0.034025382364162575 -6.692857017624883 0.007825736567057002 0.0222455266776818 -0.0014535449320707188 -0.01976925468977322 0.01837166524495843 8.04857482230703 3.5053957316095055 -19.22020843104712 0.013618596313991569 10.39023725669256 0.028086779544815088 -5.597601895016769 -15.684921117158831 3.1977869478821463 0.01303277348196246 0.0003915197719527483 -0.03982972529473575 -0.009278610629536036 4.6720928223145 0.01860326203270827 12.453890423072094 -8.258348189256669 6.918808242933957 -0.03570998079715821 46.36702740450694 -0.032379870232020935 -4.3188770662089615 -14.770348946825369 -3.8851393055320966 0.023163654155888135 -0.01367245460342246 -0.026344575651005495 0.024334641209950617 -10.720347545032615 0.0367764659996068 
